custom-analysis
version=1
nRows=4
nColumns=98
inDegrees=no

This file contains tibia displacement and acting force.

Units are S.I. units (seconds, meters, Newtons, ...)
Angles are in degrees.

endheader
time	APT	SIT	knee_angle	aACL_R_force	pACL_R_force	aPCL_R_force	pPCL_R_force	aMCL_R_force	mMCL_R_force	pMCL_R_force	aLCL_R_force	mLCL_R_force	pLCL_R_force	aPCL_L_force	pPCL_L_force	aMCL_L_force	aLCL_L_force	aACL_R_length	pACL_R_length	aPCL_R_length	pPCL_R_length	aMCL_R_length	mMCL_R_length	pMCL_R_length	aLCL_R_length	mLCL_R_length	pLCL_R_length	aPCL_L_length	pPCL_L_length	aMCL_L_length	aLCL_L_length	aACL_R_strain	pACL_R_strain	aPCL_R_strain	pPCL_R_strain	aMCL_R_strain	mMCL_R_strain	pMCL_R_strain	aLCL_R_strain	mLCL_R_strain	pLCL_R_strain	aPCL_L_strain	pPCL_L_strain	aMCL_L_strain	aLCL_L_strain	femur_lat_meniscii_r.femur_lat_r.force.X	femur_lat_meniscii_r.femur_lat_r.force.Y	femur_lat_meniscii_r.femur_lat_r.force.Z	femur_lat_meniscii_r.femur_lat_r.torque.X	femur_lat_meniscii_r.femur_lat_r.torque.Y	femur_lat_meniscii_r.femur_lat_r.torque.Z	femur_lat_meniscii_r.meniscus_lat_r.force.X	femur_lat_meniscii_r.meniscus_lat_r.force.Y	femur_lat_meniscii_r.meniscus_lat_r.force.Z	femur_lat_meniscii_r.meniscus_lat_r.torque.X	femur_lat_meniscii_r.meniscus_lat_r.torque.Y	femur_lat_meniscii_r.meniscus_lat_r.torque.Z	femur_med_meniscii_r.femur_med_r.force.X	femur_med_meniscii_r.femur_med_r.force.Y	femur_med_meniscii_r.femur_med_r.force.Z	femur_med_meniscii_r.femur_med_r.torque.X	femur_med_meniscii_r.femur_med_r.torque.Y	femur_med_meniscii_r.femur_med_r.torque.Z	femur_med_meniscii_r.meniscus_med_r.force.X	femur_med_meniscii_r.meniscus_med_r.force.Y	femur_med_meniscii_r.meniscus_med_r.force.Z	femur_med_meniscii_r.meniscus_med_r.torque.X	femur_med_meniscii_r.meniscus_med_r.torque.Y	femur_med_meniscii_r.meniscus_med_r.torque.Z	femur_med_tibia_r.tibia_upper_r.force.X	femur_med_tibia_r.tibia_upper_r.force.Y	femur_med_tibia_r.tibia_upper_r.force.Z	femur_med_tibia_r.tibia_upper_r.torque.X	femur_med_tibia_r.tibia_upper_r.torque.Y	femur_med_tibia_r.tibia_upper_r.torque.Z	femur_med_tibia_r.femur_med_r.force.X	femur_med_tibia_r.femur_med_r.force.Y	femur_med_tibia_r.femur_med_r.force.Z	femur_med_tibia_r.femur_med_r.torque.X	femur_med_tibia_r.femur_med_r.torque.Y	femur_med_tibia_r.femur_med_r.torque.Z	femur_lat_tibia_r.tibia_upper_r.force.X	femur_lat_tibia_r.tibia_upper_r.force.Y	femur_lat_tibia_r.tibia_upper_r.force.Z	femur_lat_tibia_r.tibia_upper_r.torque.X	femur_lat_tibia_r.tibia_upper_r.torque.Y	femur_lat_tibia_r.tibia_upper_r.torque.Z	femur_lat_tibia_r.femur_lat_r.force.X	femur_lat_tibia_r.femur_lat_r.force.Y	femur_lat_tibia_r.femur_lat_r.force.Z	femur_lat_tibia_r.femur_lat_r.torque.X	femur_lat_tibia_r.femur_lat_r.torque.Y	femur_lat_tibia_r.femur_lat_r.torque.Z	femur_lat_meniscii_force_r	femur_med_meniscii_force_r	femur_lat_tibia_force_r	femur_med_tibia_force_r
      0.10412077	      0.00792020	      0.00697681	     26.34918112	      8.68080358	    -11.24219331	      0.00000000	     51.54551093	      0.00000000	      0.00000000	    -40.65143353	      0.00000000	      0.00000000	      0.00000000	      0.00000000	      0.00000000	      0.00000001	      0.00000000	      0.03244654	      0.02546596	      0.03076970	      0.02997991	      0.05709589	      0.05952910	      0.05902772	      0.05357312	      0.05060288	      0.04715903	      0.01525851	      0.01651186	      0.06550154	      0.04489616	      0.04647697	      0.01625230	     -0.01047104	      0.00308183	     -0.04882992	     -0.00442183	      0.00510352	     -0.04294748	     -0.10148894	     -0.09903321	      0.00000079	     -0.32847694	      0.00000060	     -0.00000086	     71.19954006	    304.41713102	     42.42932621	    -24.81338757	      1.85144625	     28.30185896	    -71.19954006	   -304.41713102	    -42.42932621	      9.31406092	     -2.41399766	      1.74328504	    -38.51050939	     68.52787291	      4.23481246	     -0.07270622	      0.93337765	    -15.77693324	     38.51050939	    -68.52787291	     -4.23481246	     -1.38411199	     -0.88171709	      1.69295674	    -73.85580439	   -472.69939904	    105.10205681	    -11.11528339	      1.89335882	      0.74504977	     73.85580439	    472.69939904	   -105.10205681	     52.40808339	     -1.09122372	     31.87925693	    -40.48042998	   -157.22478883	    -38.38108094	      5.36593170	     -1.40523705	      0.09521701	     40.48042998	    157.22478883	     38.38108094	    -19.66566691	      0.95290440	     16.83961961	    315.49867176	     78.72142234	    166.82747618	    489.84267275
      0.10489189	      0.00797003	      0.00707744	     26.68967570	      9.21395030	    -10.71295497	      0.00000000	     52.19553049	      0.00000000	      0.00000000	    -39.34193063	      0.00000000	      0.00000000	      0.00000000	      0.00000000	      0.00000000	      0.00000001	      0.00000000	      0.03243275	      0.02544163	      0.03082710	      0.03002069	      0.05712071	      0.05952207	      0.05898516	      0.05356497	      0.05057411	      0.04710925	      0.01525851	      0.01651186	      0.06550154	      0.04489616	      0.04603217	      0.01528124	     -0.00862516	      0.00444631	     -0.04841645	     -0.00453949	      0.00437884	     -0.04309312	     -0.10199984	     -0.09998424	      0.00000079	     -0.32847694	      0.00000060	     -0.00000086	     71.97940912	    297.84765700	     42.04790227	    -24.48157002	      1.88010469	     28.63219991	    -71.97940912	   -297.84765700	    -42.04790227	      9.10269798	     -2.44309101	      1.68194673	    -36.71724656	     67.96137768	      5.13100780	     -0.46206644	      0.88674970	    -15.03166171	     36.71724656	    -67.96137768	     -5.13100780	     -1.34092920	     -0.84945055	      1.63547530	    -79.48471348	   -483.32527742	    107.65223452	    -11.38287794	      2.01457202	      0.67254916	     79.48471348	    483.32527742	   -107.65223452	     53.65872851	     -1.18767671	     34.25420635	    -39.20618536	   -146.71321151	    -36.31742169	      5.02248890	     -1.35844304	      0.06314436	     39.20618536	    146.71321151	     36.31742169	    -18.56297882	      0.92567923	     16.30264094	    309.29320749	     77.41596923	    156.14367268	    501.50787339
      0.10566300	      0.00802298	      0.00717813	     27.03239225	      9.09268208	    -10.79425519	      0.00000000	     53.71913903	      0.00000000	      0.00000000	    -38.44542790	      0.00000000	      0.00000000	      0.00000000	      0.00000000	      0.00000000	      0.00000001	      0.00000000	      0.03241985	      0.02541803	      0.03088484	      0.03006142	      0.05714720	      0.05951630	      0.05894389	      0.05355818	      0.05054651	      0.04706054	      0.01525851	      0.01651186	      0.06550154	      0.04489616	      0.04561596	      0.01433966	     -0.00676835	      0.00580920	     -0.04797511	     -0.00463600	      0.00367605	     -0.04321438	     -0.10248991	     -0.10091502	      0.00000079	     -0.32847694	      0.00000060	     -0.00000086	     69.25801349	    294.48032981	     43.93844330	    -25.19191813	      1.81318854	     27.47961575	    -69.25801349	   -294.48032981	    -43.93844330	      9.07253005	     -2.39013601	      1.79535127	    -35.32848647	     68.04563457	      6.05695989	     -0.84671670	      0.85345916	    -14.45405005	     35.32848647	    -68.04563457	     -6.05695989	     -1.31235042	     -0.82999116	      1.59719285	    -83.51447537	   -489.38427656	    108.27814193	    -11.50753720	      2.09758783	      0.63583472	     83.51447537	    489.38427656	   -108.27814193	     54.01967407	     -1.25923102	     35.94271548	    -36.73980540	   -137.12488376	    -34.17030149	      4.69553345	     -1.28042064	      0.08662852	     36.73980540	    137.12488376	     34.17030149	    -17.44225786	      0.87103405	     15.26147322	    305.68926033	     76.90901835	    146.01594622	    508.12970171
      0.10643412	      0.00807785	      0.00727951	     27.37710048	      8.56302272	    -11.22958176	      0.00000000	     55.21969125	      0.00000000	      0.00000000	    -38.26777138	      0.00000000	      0.00000000	      0.00000000	      0.00000000	      0.00000000	      0.00000001	      0.00000000	      0.03240681	      0.02539429	      0.03094280	      0.03010197	      0.05717462	      0.05951108	      0.05890317	      0.05355208	      0.05051937	      0.04701218	      0.01525851	      0.01651186	      0.06550154	      0.04489616	      0.04519560	      0.01339224	     -0.00490425	      0.00716573	     -0.04751836	     -0.00472321	      0.00298279	     -0.04332342	     -0.10297181	     -0.10183886	      0.00000079	     -0.32847694	      0.00000060	     -0.00000086	     66.44335788	    294.13254790	     45.12135292	    -25.67899847	      1.74003385	     26.27462196	    -66.44335788	   -294.13254790	    -45.12135292	      9.09652370	     -2.32462756	      1.95465891	    -34.62114701	     68.31492315	      7.17821211	     -1.30623490	      0.83358305	    -14.16557413	     34.62114701	    -68.31492315	     -7.17821211	     -1.28316196	     -0.82441860	      1.58946785	    -87.97739006	   -492.31575080	    108.85804537	    -11.58434275	      2.18807038	      0.56241068	     87.97739006	    492.31575080	   -108.85804537	     54.30782228	     -1.33898736	     37.80606408	    -34.44001122	   -126.65707147	    -31.65677911	      4.33246007	     -1.20126023	      0.08981728	     34.44001122	    126.65707147	     31.65677911	    -16.14678050	      0.81864089	     14.29404570	    304.90098726	     76.92255374	    135.01955336	    511.82506160
